<svg width="236" height="194" viewBox="0 0 236 194" fill="none" xmlns="http://www.w3.org/2000/svg">
<path d="M16.8901 101.179L68.3384 101.179C69.251 101.179 70.1266 101.541 70.772 102.187L107.292 138.707C109.46 140.875 107.925 144.582 104.859 144.582L53.4106 144.582C52.4979 144.582 51.6224 144.22 50.977 143.574L14.4565 107.054C12.2887 104.886 13.8243 101.179 16.8901 101.179Z" stroke="#1A1C10" stroke-width="5.49988"/>
<path d="M218.845 92.8207L167.396 92.8207C166.484 92.8206 165.608 92.4582 164.963 91.8128L128.442 55.2923C126.275 53.1244 127.81 49.4176 130.876 49.4173L182.324 49.4173C183.237 49.4174 184.112 49.7798 184.758 50.4252L221.278 86.9457C223.446 89.1137 221.911 92.8205 218.845 92.8207Z" stroke="#1A1C10" stroke-width="5.49988"/>
<path d="M14.9473 92.0793H66.3955C67.3082 92.0793 68.1837 91.7169 68.8291 91.0715L151.275 8.62525C153.443 6.45723 151.908 2.75026 148.842 2.75025H97.3935C96.481 2.75035 95.6053 3.11275 94.96 3.75806L12.5137 86.2043C10.3459 88.3723 11.8814 92.0792 14.9473 92.0793Z" stroke="#1A1C10" stroke-width="5.49988"/>
<path d="M220.79 101.92L169.341 101.92C168.429 101.92 167.553 102.283 166.908 102.928L84.4614 185.374C82.2934 187.542 83.829 191.249 86.895 191.249L138.343 191.249C139.256 191.249 140.132 190.887 140.777 190.242L223.223 107.795C225.391 105.627 223.855 101.92 220.79 101.92Z" stroke="#1A1C10" stroke-width="5.49988"/>
</svg>
