<svg width="878" height="194" viewBox="0 0 878 194" fill="none" xmlns="http://www.w3.org/2000/svg">
<path d="M765.832 41.7241H794.961L822.3 79.9666L848.663 41.7241H877.63L837.435 98.681L877.63 155.638H848.663L822.3 117.395L794.961 155.638H765.832L807.166 98.681L765.832 41.7241Z" fill="black"/>
<path d="M724.251 156.778C716.114 156.778 708.52 155.368 701.468 152.547C694.416 149.727 688.232 145.767 682.916 140.668C677.6 135.46 673.423 129.331 670.386 122.279C667.348 115.119 665.829 107.253 665.829 98.6824C665.829 90.1117 667.348 82.3005 670.386 75.2486C673.423 68.0883 677.6 61.9587 682.916 56.8597C688.232 51.6522 694.416 47.6381 701.468 44.8174C708.52 41.9966 716.114 40.5863 724.251 40.5863C732.279 40.5863 739.819 41.9966 746.871 44.8174C754.031 47.6381 760.215 51.6522 765.422 56.8597C770.738 61.9587 774.915 68.0883 777.953 75.2486C780.991 82.3005 782.509 90.1117 782.509 98.6824C782.509 107.253 780.991 115.119 777.953 122.279C774.915 129.331 770.738 135.46 765.422 140.668C760.106 145.767 753.923 149.727 746.871 152.547C739.819 155.368 732.279 156.778 724.251 156.778ZM724.251 135.298C730.652 135.298 736.293 133.779 741.175 130.741C746.166 127.595 750.017 123.255 752.729 117.722C755.55 112.189 756.96 105.843 756.96 98.6824C756.96 91.4136 755.55 85.0669 752.729 79.6425C750.017 74.1095 746.166 69.8242 741.175 66.7865C736.293 63.6403 730.652 62.0672 724.251 62.0672C717.633 62.0672 711.883 63.6403 707.001 66.7865C702.119 69.8242 698.267 74.1095 695.447 79.6425C692.734 85.0669 691.378 91.4136 691.378 98.6824C691.378 105.843 692.734 112.189 695.447 117.722C698.267 123.255 702.119 127.595 707.001 130.741C711.883 133.779 717.633 135.298 724.251 135.298Z" fill="black"/>
<path d="M637.288 75.2473C637.288 71.0162 635.932 67.87 633.219 65.8087C630.507 63.7474 626.656 62.7168 621.665 62.7168H595.465V87.7779H621.502C626.493 87.7779 630.344 86.7472 633.057 84.6859C635.877 82.6246 637.288 79.4784 637.288 75.2473ZM570.241 155.638V41.7241H626.059C633.979 41.7241 640.651 43.026 646.075 45.6297C651.5 48.125 655.622 51.6509 658.443 56.2074C661.372 60.6555 662.837 65.8087 662.837 71.6672C662.837 76.7662 661.861 81.0515 659.908 84.5232C658.063 87.8863 655.46 90.5986 652.096 92.6599C648.842 94.6127 645.099 95.9688 640.868 96.7282V98.0301C645.967 98.681 650.361 100.091 654.049 102.261C657.738 104.431 660.559 107.414 662.511 111.212C664.464 114.9 665.441 119.403 665.441 124.718C665.441 130.794 663.976 136.164 661.047 140.829C658.118 145.494 653.887 149.129 648.354 151.732C642.821 154.336 636.04 155.638 628.012 155.638H570.241ZM595.465 134.645H623.943C629.042 134.645 633.002 133.506 635.823 131.228C638.752 128.95 640.217 125.641 640.217 121.301C640.217 116.745 638.698 113.381 635.66 111.212C632.623 108.933 628.554 107.794 623.455 107.794H595.465V134.645Z" fill="black"/>
<path d="M507.885 62.7168H502.19L469.643 155.638H443.768L484.94 41.7241H525.623L566.632 155.638H540.758L507.885 62.7168ZM471.27 110.072H537.666V131.065H471.27V110.072Z" fill="black"/>
<path d="M386.156 122.116C386.807 125.262 388 127.866 389.736 129.927C391.472 131.989 393.696 133.562 396.408 134.647C399.12 135.623 402.212 136.111 405.684 136.111C411.434 136.111 415.773 134.864 418.703 132.368C421.632 129.873 423.096 126.781 423.096 123.092C423.096 120.055 422.174 117.614 420.33 115.769C418.594 113.817 416.045 112.189 412.681 110.887C409.427 109.586 405.684 108.284 401.453 106.982C397.113 105.788 392.774 104.432 388.434 102.913C384.094 101.286 380.08 99.3333 376.392 97.055C372.812 94.6682 369.937 91.5763 367.767 87.7792C365.597 83.982 364.566 79.2628 364.675 73.6213C364.675 66.5695 366.411 60.6026 369.882 55.7205C373.462 50.73 378.29 46.9871 384.366 44.4919C390.55 41.8881 397.656 40.5863 405.684 40.5863C412.736 40.5863 419.028 41.6169 424.561 43.6782C430.094 45.631 434.705 48.6145 438.393 52.6286C442.082 56.5342 444.686 61.362 446.205 67.1119L423.096 72.1567C422.662 69.7699 421.578 67.7629 419.842 66.1355C418.214 64.3997 416.207 63.1521 413.821 62.3926C411.434 61.5247 408.993 61.0365 406.498 60.928C403.46 60.928 400.693 61.4162 398.198 62.3926C395.811 63.3691 393.859 64.7794 392.34 66.6237C390.929 68.4681 390.224 70.5836 390.224 72.9704C390.224 75.6826 391.038 77.9066 392.665 79.6425C394.401 81.2698 396.733 82.6802 399.663 83.8736C402.592 85.0669 405.792 86.2603 409.264 87.4537C413.712 88.8641 418.214 90.3829 422.771 92.0103C427.436 93.6376 431.721 95.7531 435.627 98.3569C439.533 100.852 442.679 104.107 445.066 108.121C447.452 112.027 448.646 116.909 448.646 122.767C448.646 129.168 447.127 134.918 444.089 140.017C441.051 145.116 436.441 149.184 430.257 152.222C424.181 155.26 416.479 156.778 407.148 156.778C399.337 156.778 392.34 155.639 386.156 153.361C379.972 151.083 374.873 147.774 370.859 143.434C366.845 139.095 364.187 133.833 362.885 127.649L386.156 122.116Z" fill="black"/>
<path d="M273.177 41.7241H298.401V87.2897H305.724L343.315 41.7241H373.421L327.855 97.7046L374.886 155.638H343.315L305.724 108.445H298.401V155.638H273.177V41.7241Z" fill="black"/>
<path d="M16.8901 101.179L68.3384 101.179C69.251 101.179 70.1266 101.541 70.772 102.187L107.292 138.707C109.46 140.875 107.925 144.582 104.859 144.582L53.4106 144.582C52.4979 144.582 51.6224 144.22 50.977 143.574L14.4565 107.054C12.2887 104.886 13.8243 101.179 16.8901 101.179Z" stroke="black" stroke-width="5.49988"/>
<path d="M218.845 92.8206L167.396 92.8206C166.484 92.8206 165.608 92.4582 164.963 91.8128L128.442 55.2923C126.275 53.1243 127.81 49.4176 130.876 49.4173L182.324 49.4173C183.237 49.4173 184.112 49.7798 184.758 50.4251L221.278 86.9456C223.446 89.1136 221.911 92.8205 218.845 92.8206Z" stroke="black" stroke-width="5.49988"/>
<path d="M14.9473 92.0793H66.3955C67.3082 92.0793 68.1837 91.7169 68.8291 91.0715L151.275 8.62525C153.443 6.45723 151.908 2.75026 148.842 2.75025H97.3935C96.481 2.75035 95.6053 3.11275 94.96 3.75806L12.5137 86.2043C10.3459 88.3723 11.8814 92.0792 14.9473 92.0793Z" stroke="black" stroke-width="5.49988"/>
<path d="M220.79 101.92L169.341 101.92C168.429 101.92 167.553 102.283 166.908 102.928L84.4614 185.374C82.2934 187.542 83.829 191.249 86.895 191.249L138.343 191.249C139.256 191.249 140.132 190.887 140.777 190.242L223.223 107.795C225.391 105.627 223.855 101.92 220.79 101.92Z" stroke="black" stroke-width="5.49988"/>
</svg>
